/* XPM */
static char * coin2_xpm[] = {
"64 64 477 2",
"  	c #FFFFFF",
". 	c #F3F4F5",
"+ 	c #C4BFBF",
"@ 	c #140000",
"# 	c #EAE8E8",
"$ 	c #CBC6C6",
"% 	c #F3F2F2",
"& 	c #1F0C0C",
"* 	c #090404",
"= 	c #DCDCDC",
"- 	c #150101",
"; 	c #140101",
"> 	c #DCD9D9",
", 	c #FBCACA",
"' 	c #FFA9A9",
") 	c #FF9D9D",
"! 	c #E08A8A",
"~ 	c #050505",
"{ 	c #F8F8F8",
"] 	c #606060",
"^ 	c #505050",
"/ 	c #422525",
"( 	c #FFCECE",
"_ 	c #EEBEBE",
": 	c #2B1919",
"< 	c #1A0606",
"[ 	c #8E6A6A",
"} 	c #FFB1B1",
"| 	c #D28181",
"1 	c #111111",
"2 	c #493A3A",
"3 	c #FFB4B4",
"4 	c #FFC5C5",
"5 	c #F2F1F1",
"6 	c #A56666",
"7 	c #111416",
"8 	c #CACACA",
"9 	c #4E3333",
"0 	c #FFB3B3",
"a 	c #FFBBBB",
"b 	c #4E3F3F",
"c 	c #FDFDFD",
"d 	c #FFB6B6",
"e 	c #1E1414",
"f 	c #0D0F10",
"g 	c #263035",
"h 	c #313F45",
"i 	c #2A353A",
"j 	c #515151",
"k 	c #BC7171",
"l 	c #4D2626",
"m 	c #613434",
"n 	c #CBA0A0",
"o 	c #F9F9F9",
"p 	c #988F8F",
"q 	c #FFA6A6",
"r 	c #1E2528",
"s 	c #0A0B0C",
"t 	c #334147",
"u 	c #9B7474",
"v 	c #E48B8B",
"w 	c #330A0A",
"x 	c #FE4C4C",
"y 	c #C53939",
"z 	c #1E0303",
"A 	c #522929",
"B 	c #FFC2C2",
"C 	c #928989",
"D 	c #5A4C4C",
"E 	c #C37979",
"F 	c #324046",
"G 	c #2C383E",
"H 	c #2F3B41",
"I 	c #0D0303",
"J 	c #FF9E9E",
"K 	c #D63F3F",
"L 	c #FF4C4C",
"M 	c #654444",
"N 	c #433434",
"O 	c #FB9B9B",
"P 	c #090A0B",
"Q 	c #2E3A40",
"R 	c #1D2528",
"S 	c #2E3B41",
"T 	c #C57676",
"U 	c #4F1313",
"V 	c #C49797",
"W 	c #544646",
"X 	c #2B1C1C",
"Y 	c #263034",
"Z 	c #2B373D",
"` 	c #313E44",
" .	c #0D0202",
"..	c #856161",
"+.	c #270D0D",
"@.	c #CD3C3C",
"#.	c #FFC8C8",
"$.	c #958C8C",
"%.	c #0C0303",
"&.	c #A16464",
"*.	c #C87C7C",
"=.	c #050606",
"-.	c #161B1E",
";.	c #293439",
">.	c #160A0B",
",.	c #FFA0A0",
"'.	c #FE9C9C",
").	c #FF7C7C",
"!.	c #FF8585",
"~.	c #FF5A5A",
"{.	c #BF6161",
"].	c #909090",
"^.	c #222C30",
"/.	c #201C1F",
"(.	c #5E3232",
"_.	c #FF6E6E",
":.	c #FF4E4E",
"<.	c #FF5656",
"[.	c #B6B6B6",
"}.	c #D7D7D7",
"|.	c #0B0B0B",
"1.	c #000101",
"2.	c #161C1F",
"3.	c #0F1214",
"4.	c #131719",
"5.	c #0B0F10",
"6.	c #020303",
"7.	c #894E4E",
"8.	c #F94A4A",
"9.	c #FF6868",
"0.	c #FF6262",
"a.	c #DEDEDE",
"b.	c #181818",
"c.	c #1D2428",
"d.	c #190B0C",
"e.	c #4A3335",
"f.	c #FF7878",
"g.	c #FF7979",
"h.	c #080909",
"i.	c #C3C3C3",
"j.	c #878787",
"k.	c #878888",
"l.	c #1B2226",
"m.	c #263136",
"n.	c #0E1315",
"o.	c #13191C",
"p.	c #272B30",
"q.	c #FF9A9A",
"r.	c #FFABAB",
"s.	c #FEFEFE",
"t.	c #080B0D",
"u.	c #212A2F",
"v.	c #000000",
"w.	c #0B0E10",
"x.	c #FF8B8B",
"y.	c #582D2D",
"z.	c #CBCBCB",
"A.	c #040404",
"B.	c #1C2428",
"C.	c #342307",
"D.	c #1C1303",
"E.	c #160708",
"F.	c #721E1E",
"G.	c #FF9191",
"H.	c #FF8D8D",
"I.	c #170708",
"J.	c #2D393E",
"K.	c #263135",
"L.	c #828282",
"M.	c #5D5D5D",
"N.	c #07090A",
"O.	c #A97116",
"P.	c #FFAA20",
"Q.	c #FFB325",
"R.	c #67460D",
"S.	c #060809",
"T.	c #8A4F4F",
"U.	c #1E272B",
"V.	c #232323",
"W.	c #FAFAFA",
"X.	c #C9A92A",
"Y.	c #FFD736",
"Z.	c #140202",
"`.	c #1F272B",
" +	c #171D21",
".+	c #444444",
"++	c #EBEBEB",
"@+	c #535353",
"#+	c #727272",
"$+	c #030303",
"%+	c #1F1A07",
"&+	c #BC9F28",
"*+	c #151B1E",
"=+	c #BF8018",
"-+	c #FFCB30",
";+	c #19191C",
">+	c #C46464",
",+	c #1C1618",
"'+	c #20292D",
")+	c #14191C",
"!+	c #171D20",
"~+	c #C1C1C1",
"{+	c #171717",
"]+	c #D8D8D8",
"^+	c #696969",
"/+	c #060503",
"(+	c #806C1B",
"_+	c #402E0A",
":+	c #FFC12B",
"<+	c #3B2908",
"[+	c #141A1D",
"}+	c #3B1616",
"|+	c #8A4343",
"1+	c #C36969",
"2+	c #8A4A4A",
"3+	c #222B30",
"4+	c #2C383D",
"5+	c #1C2326",
"6+	c #666666",
"7+	c #D6D6D6",
"8+	c #313131",
"9+	c #3C3410",
"0+	c #8E751E",
"a+	c #C2A73C",
"b+	c #FED636",
"c+	c #77500F",
"d+	c #13181B",
"e+	c #19181B",
"f+	c #060606",
"g+	c #404040",
"h+	c #754E4E",
"i+	c #825858",
"j+	c #040506",
"k+	c #7A571A",
"l+	c #140C0D",
"m+	c #1D181B",
"n+	c #1E252A",
"o+	c #2B363B",
"p+	c #2D393F",
"q+	c #242E33",
"r+	c #273237",
"s+	c #9A6464",
"t+	c #191F22",
"u+	c #1E262A",
"v+	c #0A0D0E",
"w+	c #B59926",
"x+	c #212A2E",
"y+	c #2F3C42",
"z+	c #222A2F",
"A+	c #1E1E1E",
"B+	c #FF9797",
"C+	c #EA6E6E",
"D+	c #1E262B",
"E+	c #2A353B",
"F+	c #283338",
"G+	c #101417",
"H+	c #1C2327",
"I+	c #232C30",
"J+	c #FF8080",
"K+	c #E76161",
"L+	c #594B13",
"M+	c #FFB224",
"N+	c #DE941C",
"O+	c #232C31",
"P+	c #0A0C0D",
"Q+	c #181E22",
"R+	c #000001",
"S+	c #FFC62E",
"T+	c #3E2B0B",
"U+	c #181E21",
"V+	c #E66161",
"W+	c #0E1113",
"X+	c #0C1012",
"Y+	c #C38218",
"Z+	c #FFCC31",
"`+	c #FFC22C",
" @	c #0A0C0E",
".@	c #8C8282",
"+@	c #DD6F6F",
"@@	c #A14545",
"#@	c #0F1215",
"$@	c #08090A",
"%@	c #090B0C",
"&@	c #6E4A0E",
"*@	c #805510",
"=@	c #4C340A",
"-@	c #060707",
";@	c #1A2125",
">@	c #894D4D",
",@	c #897F7F",
"'@	c #13171A",
")@	c #101517",
"!@	c #0C0E0F",
"~@	c #010202",
"{@	c #080A0A",
"]@	c #171E21",
"^@	c #FF9B9B",
"/@	c #A86161",
"(@	c #7E7373",
"_@	c #484848",
":@	c #827C62",
"<@	c #7D7554",
"[@	c #070808",
"}@	c #0E1214",
"|@	c #151A1D",
"1@	c #DE7171",
"2@	c #411C1C",
"3@	c #3B2B2B",
"4@	c #FFF6D0",
"5@	c #FFEEAA",
"6@	c #0B0B09",
"7@	c #0C0F10",
"8@	c #86683C",
"9@	c #82663B",
"0@	c #111518",
"a@	c #1A2024",
"b@	c #601717",
"c@	c #1D0606",
"d@	c #746868",
"e@	c #C6C1C1",
"f@	c #FFFAE4",
"g@	c #ECDC9D",
"h@	c #FFEBA6",
"i@	c #FFCA7A",
"j@	c #FFC670",
"k@	c #846C43",
"l@	c #151A1E",
"m@	c #192023",
"n@	c #FA6E6E",
"o@	c #FD8585",
"p@	c #CA5555",
"q@	c #703C3C",
"r@	c #D0CCCC",
"s@	c #7E673F",
"t@	c #FFF3CE",
"u@	c #5B5950",
"v@	c #161614",
"w@	c #FFF5CD",
"x@	c #121719",
"y@	c #12171A",
"z@	c #13181C",
"A@	c #D74C4C",
"B@	c #E65A5A",
"C@	c #F56969",
"D@	c #FA6F6F",
"E@	c #FD8787",
"F@	c #D56464",
"G@	c #C57575",
"H@	c #CDC9C9",
"I@	c #CFCBB9",
"J@	c #F6C780",
"K@	c #825929",
"L@	c #605941",
"M@	c #727065",
"N@	c #FFFAE2",
"O@	c #282723",
"P@	c #161B1F",
"Q@	c #0F1315",
"R@	c #0A0606",
"S@	c #D14646",
"T@	c #E75B5B",
"U@	c #ED6161",
"V@	c #F76E6E",
"W@	c #E46E6E",
"X@	c #C97676",
"Y@	c #3E0D0D",
"Z@	c #A8A9A9",
"`@	c #9A6B32",
" #	c #706C5E",
".#	c #4F4D45",
"+#	c #C0BDAC",
"@#	c #FFFAE3",
"##	c #101416",
"$#	c #0E1213",
"%#	c #6B2323",
"&#	c #CF4949",
"*#	c #D44949",
"=#	c #CA4040",
"-#	c #CD4C4C",
";#	c #7B796E",
">#	c #96662D",
",#	c #777569",
"'#	c #FFF0B1",
")#	c #11100E",
"!#	c #AAA695",
"~#	c #432A2A",
"{#	c #724545",
"]#	c #804D4D",
"^#	c #101315",
"/#	c #0D0F11",
"(#	c #434343",
"_#	c #8B8181",
":#	c #250404",
"<#	c #752626",
"[#	c #B63F3F",
"}#	c #BB3131",
"|#	c #E95D5D",
"1#	c #BD3333",
"2#	c #FD8E8E",
"3#	c #7A4242",
"4#	c #0A0B0B",
"5#	c #FFF3C3",
"6#	c #A36F31",
"7#	c #817E72",
"8#	c #161B1D",
"9#	c #1B2125",
"0#	c #6A3939",
"a#	c #F99494",
"b#	c #FF9898",
"c#	c #F69292",
"d#	c #5C3737",
"e#	c #462B2B",
"f#	c #A09797",
"g#	c #786D6D",
"h#	c #421212",
"i#	c #5B0C0C",
"j#	c #A43939",
"k#	c #BB6767",
"l#	c #828075",
"m#	c #EFEAD4",
"n#	c #F7F2DB",
"o#	c #664620",
"p#	c #747267",
"q#	c #06080A",
"r#	c #060B0E",
"s#	c #020202",
"t#	c #DB6C6C",
"u#	c #9C4D4D",
"v#	c #8B4545",
"w#	c #FE9393",
"x#	c #793838",
"y#	c #603030",
"z#	c #FF7D7D",
"A#	c #FF8989",
"B#	c #FD8383",
"C#	c #FB7979",
"D#	c #E26464",
"E#	c #B75151",
"F#	c #F66C6C",
"G#	c #F4F4F4",
"H#	c #BFBABA",
"I#	c #7A6F6F",
"J#	c #574949",
"K#	c #474747",
"L#	c #030404",
"M#	c #060A0C",
"N#	c #8F9192",
"O#	c #181919",
"P#	c #844141",
"Q#	c #803F3F",
"R#	c #964A4A",
"S#	c #7D3838",
"T#	c #F7F7F7",
"U#	c #E8E8E8",
"V#	c #6D6D6D",
"W#	c #402020",
"X#	c #653232",
"Y#	c #853B3B",
"Z#	c #7A3636",
"`#	c #1E0F0F",
" $	c #7A3C3C",
".$	c #FE7B7B",
"+$	c #9B4545",
"@$	c #190C0C",
"#$	c #7F8080",
"$$	c #343535",
"%$	c #131414",
"&$	c #9A9A9A",
"*$	c #6B6C6C",
"=$	c #787878",
"-$	c #808080",
";$	c #555656",
">$	c #EBECEF",
",$	c #C4C8D0",
"'$	c #A7AEB9",
")$	c #E9EBED",
"!$	c #9CA4B0",
"                                                                                                                              . ",
"                                                                                                                              . ",
"                                                                                                                              . ",
"                                                                                                                              . ",
"                                                                                                                              . ",
"                                                                                                                              . ",
"                                                                                                                              . ",
"                                                                                                                              . ",
"                                                                                                                              . ",
"                                                                                                                              . ",
"                                                                                                                              . ",
"                                                                                                                              . ",
"                                                                                                                              . ",
"                            + @ @ @ @ @ #                 $ @ @ @ @ @ %                                                       . ",
"                            & @ @ @ @ @ * =               - @ @ @ @ @ ;                                                       . ",
"                          > @ , ' ) ) ! ~ ~ { ] ^       @ / ( ( ( ( _ @ :                                                     . ",
"                          < [ } ) ) ) | ~ ~ 1 ~ ~     2 @ ( 3 ) ) ) 4 ( @ 5                                                   . ",
"                          @ ( ) ) ) ) 6 ~ 7 ~ ~ ~ 8   @ 9 0 ) ) ) ) ) a @ b                                                   . ",
"                        c @ d ) ) ) ) e f g ~ h i j ; @ d ) k l @ @ m ) n @ o                                                 . ",
"                        p @ q ) ) ) ) ~ r s ~ t t ~ @ u ) v @ w x y z A B @ C                                                 . ",
"                        D @ ) ) ) ) E ~ F ~ t G H I @ J ) @ K L L L L L ) M @                                                 . ",
"                        N @ ) ) ) O ~ P Q R S G G I @ ) T U L L L L L L ) V @                                                 . ",
"                        W @ ) ) ) X ~ Y Z ` G G G  ...) +.@.L L L L L L ) #.@                                                 . ",
"                        $.%.&.) *.~ =.G -.G G G ;.>.,.'.@ L L ).!.!.~.L {.} @ ].                                              . ",
"                        ~ ~ ~ ~ ~ Z G G G ^.G G ~ /.) (.@ L _.!.!.!.!.:.<.J @ ~ [.                                            . ",
"    }.~ ~             |.1.2.3.~ 4.G G G 5.1.6.G G G 7.@ 8.9.!.!.!.!.!.!.0.) @ Q ~ ~                                           . ",
"      a.b.            1.1.1.G G c.G G G 1.1.1.G G d.e.@ L f.!.!.!.!.!.!.g.,.@ t h.~ i.                                        . ",
"        j.          k.1.1.1.l.m.G G G n.1.1.1.o.G p.@ @ L !.!.!.!.!.!.!.q.r.@ F t ~ ~                                         . ",
"          s.          1.1.1.t.l.l.G u.1.1.1.1.v.v.w.l.@ L !.!.!.!.!.x.!.) y.@ g ;.t ~ ~                                       . ",
"          z.          A.1.1.1.l.l.B.6.1.1.1.1.C.D.v.l.E.F.!.!.!.!.!.G.H.) @ I.g g J.K.~                                       . ",
"          ~ L.M.      v.1.1.1.N.l.t.1.1.1.1.O.P.Q.R.S.l.@ !.!.!.!.!.G.@ T.@ g g g g U.K.~                                     . ",
"              V.    W.v.X.1.1.1.l.1.1.1.1.v.P.P.Y.P.v.l.Z.!.!.!.!.!.G.@ @ @ g g `.l. +t ~                                     . ",
"    .+      ++a.@+  #+$+%+&+1.1.*+1.1.1.1.=+P.-+Y.P.v.l.;+>+!.!.!.!.G.@ @ ,+g '+l.l.)+!+~ ~+                                  . ",
"      ~ ~ ~ ~ {+]+^+$+/+(+Y._+1.~ 1.1.1.:+Y.Y.Y.Y.P.<+[+l.; }+|+1+2+T.@ g 3+l.l.4+t t 5+~ 6+                                  . ",
"    7+~ ~ ~ ~ ~ 8+~ ~ ~ 9+Y.0+A.~ 1.1.a+b+Y.Y.Y.Y.P.c+d+l.e+@ @ @ @ @ @ g l.l.l.t t t t ~ f+                                  . ",
"    g+~ h+i+i+~ ~ ~ ~ ~ ~ ~ ~ ~ 3+j+1.  v.Y.Y.Y.Y.P.k+d+l.l.l+@ @ @ @ m+n+l.l.o+p+q+l.r+i ~ =                                 . ",
"    ~ ~ r.r.r.s+~ q+G G G t+u+G G v+v.Y.w+Y.Y.Y.Y.P.d+d+l.l.d+d+g g g l.l.l.x+y+l.l.l.l.z+5+A+                                . ",
"    ~ ~ B+r.r.C+~ l.D+E+G G G G F+G+v.Y.Y.Y.Y.Y.Y.P.d+d+l.l.d+d+^.g H+l.l.l.G B.l.l.l.l.l.I+~                                 . ",
"    ~ ~ J+J+K+K+~ l.l.l.l.l.l.l.l.d+v.L+Y.Y.Y.Y.M+N+d+d+l.l.d+d+l.l.l.l.l.~ O+l.l.l.l.l.l.i ~                                 . ",
"    ~ ~ J+J+K+K+P+Q+l.l.l.l.2.l.l.d+R+v.-+Y.Y.S+P.T+d+d+l.l.d+d+l.l.l.l.U+~ l.l.l.l.l.l.l.r+~                                 . ",
"    ~ ~ J+J+K+V+W+d+ +l.l.l.~  +l.d+X+v.Y+Z+`+P.P. @d+d+l.l.d+d+l.l.l.l.3.~ l.l.l.l.l.l.l.D+~ .@                              . ",
"    ~+~ ~ +@@@~ #@d+d+d+ +2.W+-.$@d+d+%@v.&@*@=@v.d+d+l.l.2.d+d+l.l.l.l.~ -@l.l.l.l.l.l.l.;@~ >@@ @ ,@                        . ",
"      ~ ~ ~ ~ ~ ~ ~ '@d+d+d+~ 2.)@!@d+~ ~@v.v.v.6.d+d+l.l.d+d+d+l.l.l.l.~ {@l.l.l.l.l.l.l.]@~ ^@/@@ @ (@                      . ",
"        _@~ ~ :@<@~ ~ [@d+d+=.}@P d+~ ~ ~ d+d+d+d+|@l.l.l.d+d+d+l.l.l.l.~ =.|@l.l.l.l.l.l.-.~ ^@^@1@^@2@@ @ 3@                . ",
"          L.$+4@5@~ 6@~ P+7@P+d+P P ~ 8@9@!@|@d+2.l.l.l.|@d+d+0@l.l.l.a@~ ~ d+l.l.l.l.l.l.d+~ q.^@^@^@^@b@c@@ d@e@            . ",
"            1.f@5@~ g@~ ~ ~ ~ {@~ ~ ~ h@i@j@k@f+l.l.l.*+d+d+d+7@l.l.l.l@~ ~ d+m@l.l.l.l.a@d+~ n@o@^@^@^@p@^@q@@ @ r@          . ",
"            1.f@5@~ 5@5@5@s@~ ~ ~ t@~ f+u@v@w@~ d+d+d+d+d+d+x@~ l.l.|@y@-@~ d+d+-.a@ +z@d+7@~ A@B@C@n@D@E@^@^@F@G@@ @ H@      . ",
"            1.I@5@~ 5@5@5@J@K@~ L@f@M@5@N@O@N@~ d+d+d+d+d+d+P ~ P@z@d+!@Q@~ d+d+d+d+d+d+d+P R@A@A@S@T@U@n@V@o@W@^@X@Y@@ +     . ",
"            Z@1.f@~ 5@5@5@`@K@ #5@.#~ +#@#~ ~ ~ ~ 3.d+d+##~ ~ 1.1.1.1.1.1.~ ~ $#d+d+d+d+~ ~ @ @ @ @ %#&#*#A@A@=#n@n@-#^@@ D   . ",
"              1.;#~ 5@5@5@>#K@,#'#~ ~ )#!#~ ~ ~ ~ ~ ~ ~ ~ ~ ~#{#1.1.1.]#]#]#~ ~ ^#d+/#~ ~ (#_#@ @ @ @ @ :#<#[#}#A@|#1#2#3#@   . ",
"              4#1.~ 5#5@5@6#K@~ f@~ ~ ~ 7#g 8#9#=.~ ~ ~ ~ 0#]#a#b#c#1.d#b#b#e#~ ~ ~ ~ ~ A.        f#g#@ @ @ @ @ @ h#i#j#k#@   . ",
"                  ~ l#m#n#o#~ ~ p#~ q#~ ~ r#r#r#r#1.s#1.1.t#u#v#w#x#y#z#z#A#B#C#D#E#F#n@1.                    G#H#I#J#@ @ +   . ",
"                  K#~ ~ L#~ ~ ~ ~ ~ r#M#~ r#r#r#N#1.1.1.O#P#Q#R#n@S#l z#z#z#n@n@n@n@n@n@1.                              c     . ",
"                      T#U#      V#                        1.W#X#Y#Z#1.`# $.$+$S#@$1.1.#$                                      . ",
"                                                          k.1.1.1.1.$$1.1.1.1.1.%$L.                                          . ",
"                                                            &$*$=$-$    #$;$#$#$                                              . ",
"                                                                                                                              . ",
"                                                                                                                              . ",
"                                                                                                                              . ",
"                                                                                                                              . ",
"                                                                                                                              >$",
"                                                                                                                              ,$",
"                                                                                                                              '$",
")$                                                                                                                            !$"};
