/* XPM */
static char * exit_xpm[] = {
"64 64 251 2",
"  	c #FFFFFF",
". 	c #000000",
"+ 	c #EEE1DB",
"@ 	c #FEFEFE",
"# 	c #EFEFEF",
"$ 	c #EDE0DA",
"% 	c #DED1CB",
"& 	c #ECE1DB",
"* 	c #BDAAA3",
"= 	c #FCFCFC",
"- 	c #EEEEEE",
"; 	c #E0D3CD",
"> 	c #BBBBBB",
", 	c #0B0203",
"' 	c #ADA09A",
") 	c #B3A29B",
"! 	c #F4F0F1",
"~ 	c #F3F1F2",
"{ 	c #F3F3F3",
"] 	c #F4F4F4",
"^ 	c #E8E8E8",
"/ 	c #F5F5F5",
"( 	c #A4968D",
"_ 	c #E3D6D0",
": 	c #E5D8D2",
"< 	c #948B86",
"[ 	c #060201",
"} 	c #BCA9A2",
"| 	c #FFFDFE",
"1 	c #AC988F",
"2 	c #A79891",
"3 	c #010101",
"4 	c #FDFDFD",
"5 	c #856D63",
"6 	c #F5EAE4",
"7 	c #B5A49D",
"8 	c #E7E1E1",
"9 	c #F0F0F0",
"0 	c #62473C",
"a 	c #634F44",
"b 	c #A6958E",
"c 	c #F1F1F1",
"d 	c #E5E5E5",
"e 	c #F2F2F2",
"f 	c #E9DEDC",
"g 	c #E7DCD6",
"h 	c #664B40",
"i 	c #E7DDDB",
"j 	c #F2EAE8",
"k 	c #B6A59E",
"l 	c #AB9C97",
"m 	c #F9F5F4",
"n 	c #644A3D",
"o 	c #664A3E",
"p 	c #AB978E",
"q 	c #FFFEFF",
"r 	c #F4E9E3",
"s 	c #FFFCF9",
"t 	c #BDACA5",
"u 	c #BEABA4",
"v 	c #BCABA4",
"w 	c #FEFDF9",
"x 	c #C3B2AA",
"y 	c #FFFFFD",
"z 	c #E5DAD4",
"A 	c #8A7268",
"B 	c #F7EAE2",
"C 	c #BDABA1",
"D 	c #ECE1DF",
"E 	c #F6EBE5",
"F 	c #E8DDD7",
"G 	c #C4B3AB",
"H 	c #F8EDE7",
"I 	c #F7EDE4",
"J 	c #F7ECE6",
"K 	c #FDFFFE",
"L 	c #AA988E",
"M 	c #8A7469",
"N 	c #FEFDFB",
"O 	c #EFE2DC",
"P 	c #8F7B72",
"Q 	c #BEADA6",
"R 	c #897368",
"S 	c #EFE0DB",
"T 	c #907C73",
"U 	c #917D74",
"V 	c #4A2A15",
"W 	c #B8B8B8",
"X 	c #927B73",
"Y 	c #674B3F",
"Z 	c #897167",
"` 	c #65493D",
" .	c #6D554B",
"..	c #FBFBFB",
"+.	c #FFFDFC",
"@.	c #E5DBD2",
"#.	c #F9ECE6",
"$.	c #8E7368",
"%.	c #674B40",
"&.	c #F5EBE2",
"*.	c #F4EAE1",
"=.	c #F5EAE6",
"-.	c #8C746A",
";.	c #6C544A",
">.	c #BFABA4",
",.	c #826A60",
"'.	c #EEE1D9",
").	c #EEDFD8",
"!.	c #EFE0D9",
"~.	c #8B7369",
"{.	c #C8C8C8",
"].	c #F8EBE3",
"^.	c #441800",
"/.	c #8C7168",
"(.	c #8B7067",
"_.	c #F0E1DA",
":.	c #DED1C9",
"<.	c #F2E3DC",
"[.	c #C9B8B0",
"}.	c #8E756E",
"|.	c #F4EBE4",
"1.	c #F4ECE9",
"2.	c #FCFFFF",
"3.	c #431900",
"4.	c #E0D1CA",
"5.	c #CAB9B1",
"6.	c #F3E9E7",
"7.	c #766055",
"8.	c #BBADA4",
"9.	c #9D8980",
"0.	c #431901",
"a.	c #BCAEA5",
"b.	c #897366",
"c.	c #8C766B",
"d.	c #F6E9E3",
"e.	c #F7EAE4",
"f.	c #FDFFFC",
"g.	c #F8EBE5",
"h.	c #8D766E",
"i.	c #755F54",
"j.	c #EDDED7",
"k.	c #F1E3DA",
"l.	c #887265",
"m.	c #BDA9A2",
"n.	c #8D7269",
"o.	c #421800",
"p.	c #776156",
"q.	c #CAB9B2",
"r.	c #BAACA3",
"s.	c #CBBAB2",
"t.	c #CABCB3",
"u.	c #F1E2DB",
"v.	c #8C6F67",
"w.	c #937F76",
"x.	c #684A3F",
"y.	c #887169",
"z.	c #604438",
"A.	c #B9AAA3",
"B.	c #887267",
"C.	c #FBFFFE",
"D.	c #BEAAA3",
"E.	c #FAF6F5",
"F.	c #AD9990",
"G.	c #F1E4DC",
"H.	c #BBAAA2",
"I.	c #FBF5F5",
"J.	c #EDEDED",
"K.	c #AE9A93",
"L.	c #8A6F66",
"M.	c #8A716A",
"N.	c #AD9992",
"O.	c #FCFAFD",
"P.	c #FCFCFA",
"Q.	c #F0E3DD",
"R.	c #EDE2DC",
"S.	c #514141",
"T.	c #847270",
"U.	c #604436",
"V.	c #614537",
"W.	c #5F4A45",
"X.	c #EBE0DC",
"Y.	c #8F7D73",
"Z.	c #BBAAA3",
"`.	c #F0E1DC",
" +	c #ECEDEF",
".+	c #FCFDFF",
"++	c #FBFCFE",
"@+	c #ECECEC",
"#+	c #BBA8A1",
"$+	c #BFABA2",
"%+	c #83716F",
"&+	c #DED0CD",
"*+	c #E2DAD7",
"=+	c #000100",
"-+	c #B9A8A1",
";+	c #EDE0D8",
">+	c #DCD1CB",
",+	c #E0D1CC",
"'+	c #827070",
")+	c #040402",
"!+	c #BCA9A3",
"~+	c #BDAAA4",
"{+	c #EBE0DA",
"]+	c #E0D2CF",
"^+	c #DED3CD",
"/+	c #EEDFDA",
"(+	c #85736F",
"_+	c #726461",
":+	c #B4A29E",
"<+	c #82706E",
"[+	c #35213A",
"}+	c #030303",
"|+	c #312334",
"1+	c #75646A",
"2+	c #342039",
"3+	c #010302",
"4+	c #2F2331",
"5+	c #050209",
"6+	c #857575",
"7+	c #847474",
"8+	c #C0ADA7",
"9+	c #F1E4DE",
"0+	c #E4D7D1",
"a+	c #846C62",
"b+	c #C0ADA6",
"c+	c #BFADA9",
"d+	c #867470",
"e+	c #847272",
"f+	c #76656F",
"g+	c #2D1E31",
"h+	c #B09F98",
"i+	c #352238",
"j+	c #7B6967",
"k+	c #857371",
"l+	c #020202",
"m+	c #251629",
"n+	c #010002",
"o+	c #0D080E",
"p+	c #6A5A5D",
"q+	c #6C5C5F",
"r+	c #625453",
"s+	c #615352",
"t+	c #5C4E4D",
"u+	c #897B78",
"v+	c #958284",
"w+	c #332036",
"x+	c #0E070F",
"y+	c #342238",
"z+	c #332139",
"A+	c #332137",
"B+	c #291C2D",
"                                                                                                                                ",
"                                                                                                                                ",
"                                                                                                                                ",
"                                                                                                                                ",
"                                                                                                                                ",
"                              . . . . . . . . . . . . . . . . . . . . . . . . . . . . . . .                                     ",
"                              . + + + + + + @ #   @               + + $ + % & + + + * * * .                                     ",
"                    = @ @ @ @ . + + + + + + @ -   @               + + + + ; $ + + + * * * . @ @ @ @ =                           ",
"                    > . . . . . + + + + + + @ #   @               + + $ + % & + + + * * * . . . . . >                           ",
"                . . . * * * * * +           @ #   @                   @   # @         + * * * * * * . . @                       ",
"                , ' ' ) ! ~ ~ ~ { ] ] ] ] ] ] ^ / { ] ] ] ] ] ] ] ( ] { / ^ ] ] ] ] ] { ~ ~ ~ _ : ) ' < @                       ",
"              . [ * } * |                   @ #   @               1   @   # @                 + + * } 2 . .                     ",
"              3 } * @   4 5                 @ #   @             6 6 6 @   # @                   4     * } 3 .                   ",
"            @ 3 7 8 9 9 { 0 a b 9 9 9 9 { 9 c d c e 9 9 f f f f g h h i c d c 9 { 9 9 9 9 9 9 9 { 9 9 j k l . @ @               ",
"            . . } m @     n o p         | q @ - q @ q q 6 6 6 6 6 o o r   # @                       @ s t u 3 3 .               ",
"            . * v w @   4 x o o         y 6 6 z 6 r 6 6 6 6 6 6 x o A r B # @                   4   @   & C * * . .             ",
"          = . * D y     @ E o o E E E E E 6 r F 6 E 6 6 6 6 6 6 G o H E I F J E 6 E E         @ K L M @ N O P P Q .             ",
"          . . * &   @   4 r o o 6 6 6 6 6 6 6 z 6 r 6 6 6 6 6 6 x o 6 r 6 z 6 6 6 6 6           @ 1 R   @ S T T * .             ",
"          . * U &   @   4 r o o 6 6 6 6 6 6 6 z 6 r 6 6 6 6 6 6 x o 6 r 6 z 6 6 6 6 6 6 6 6 6 E A A R   @   T V * .             ",
"        W . T X @       @ 6 Y Y E E E E 6 E 6 g E A Z Z Z Z Z Z ` Y E E E g 6 E 6 E E E E E E Z R 6 6       }  .u .             ",
"        . 3 T X ..  @   +.E o o 6 6 6 6 6 6 E @.#.$.Z Z Z Z A A %.%.&.*.&.@.&.&.=.6 6 6 6 6 6 A -.6 6   ..  u ;.* .             ",
"        . * T >.@   @   6 6 o o 6 6 6 6 6 6 E ,.'.).!.!.!.!.A A A A A ~.A ,.Z A B 6 6 6 6 6 6 A A 6 r   @   + * * .             ",
"    {.{.. * T O     @ ].6 6 ^.^././././.(./._.:.<.!.!.!.[.[.'.'.[.[.[.A A ,.'.'.}./.6 6 6 6 6 Z |.6 r 1.    2.* * . {.          ",
"    . . . * T + @   @ 6 6 6 3.3.A A A A A A ).4.!.).!.!.5.5.!.!.5.5.5.~.A ,._.!.A A 6 6 6 6 6 Z 6 6 6 6.@     * * . .           ",
"    . * * T *   @   6 6 6 Y 3.7.!.!.!.!.!.!.).4.[.5.5.5.5.!.5.5.5.5.5.5.5.8.).!.!.!.!.A 6 6 A Z 6 6 6 6 4     * * * .           ",
"    . * * T *   @   A A A 3.3.9.5.5.!.!.!.!.5.8.5.5.5.5.5.5.5.5.5.5.5.5.5.8.5.5.!.!.!.!.!.!.A Z 6 6 6 6 4     * T * .           ",
"    . * * T * @ =   R A ~.0.3.9.5.5._._.)._.5.a.5.5.5.5.5.5.5.5.5.5.5.5.5.a.5.5.$ _.!.!.!.!.b.c.d.6 J e.@     * T * .           ",
"    . * * T *   @   6 A A 3.3.9.9.5.5.5.[.5.5.8.5.5.5.5.5.5.5.5.5.5.5.5.5.8.5.5.[.5.!.!.!.!.!.!.A 6 E A f.    + T * .           ",
"    . * * * *       N g.h.3.i.9.9.5.5.5.5.5.5.8.5.[.5.5.5.5.5.5.5.5.5.[.5.8.5.5.5.5.[.[.[.!.!.j.k.l.l.  =       T * .           ",
"    . u u m.u = @     E n.o.p.9.9.q.5.5.[.5.[.r.s.t.5.5.5.5.5.s.s.s.s.s.s.a.s.s.s.s.5.5.s.).!.).u.~./.  @       U u .           ",
"    . * * + * + @   @   v.o o o o o 9.9.9.9.9.w.x.y.A A A A A 5.5.5.5.5.5.8.5.5.[.5.!.!.5.5.!.!.A A @   @       T * .           ",
"    . * * + * >.@   @   v.o o x o o o o o o o z.o ` A A A A A A A A A ~.A ,.Z 5.[.5.!.!.5.!.!.5.A   @   @     + T * .           ",
"    . * * + * >.@   @   v.o o x o o o o o o o z.o ` A A A A A A A A A ~.A ,.Z 5.[.5.!.!.5.!.!.5.A   @   @     + T * .           ",
"    . * * * * * A.  @   4             1 A A B.z 6 y             6 6   @ C.,.Z A A A 5.5.5.A A A 4   @   @     * T * .           ",
"    . u u u $ u D.E.                        @ #                         4 # @ F.B.~.(.(.(.~.F.F.        @ G.H.u * u .           ",
"    . * * * + u * I.y                       @ J.  4                   4   # @ K.L.M.M.M.M.M.K.N.O.  y y P.Q.* * * * .           ",
"    . * * * + R.} * }   4                   @ #   @                   @   # @                   + * } * } * * + * * .           ",
"    . . . S.* * } * }   4                   @ #   @                   @   # @                 * * * } * + $ + + * * .           ",
"    . . . S.* * } * }   4                   @ #   @                   @   # @                 * * * } * + $ + + * * .           ",
"    . . . T.T U $ + U.V.+                   @ #   @                   @   # @                 * * + + + $ $ + + * * .           ",
"    . . . . W.P v + + * + + + + + + + + + + X.#   @                   @   # @                 * + + + + $ $ + * * * .           ",
"    . . . . W.Y.Z.O + } `.+ + + + + + + + + +  +.+++.+    .+.+.+.+.+.+++.+@+@     .+.+.+.+.+.+#++ + + + + O O u u $+.           ",
"    . . . . T.%+} * + + + + + + + + + + + + + &++ $ +     + + + + + + $ + *+@   + + + + + + + + + + + + $ C * T.T.. .           ",
"    . . . . . =+T.-+* * ;++ + + + + + + + + $ >++ O + + + + + + + + + O + ,+$ + u.+ + + + + + + O + + u * '+T.T.. . .           ",
"    . . . . . )+'+k !+~++ + + O O O O O {+O + ]+O O O O O O O O O O O R.O ^++ O !./+O O O O O + $ + + t !+T.(+(+. . .           ",
"    . . . . . . . _+T.T.* * * + + + + + + + + &++ $ + + + + + + + + + $ + % & + 5 5 + + + + + * * * } :+<+T.[+[+. . .           ",
"        . . . }+|+. . T.T.T.* * * * + + + + + &++ $ + + + + + + + + + $ + % & + 5 5 * * * * * * } T.T.1+[+2+[+. . . .           ",
"        . . . 3+4+5+. 6+7+6+8+8+8+8+9+Q.Q.Q.Q._ Q.Q.Q.Q.Q.Q.Q.Q.Q.Q.Q.Q.Q.0+Q.Q.a+a+u u 8+8+8+b+c+d+e+f+2+2+2+. . . .           ",
"        . . . . . g+. . . . T.T.T.T.T.u * u v h+* * u u u * * * * * * * * h+v u * u * * T.T.T.%+2+[+2+[+[+[+[+. . . .           ",
"          . . . . . . [+i+. 3 3 3 3 T.T.T.T.T.j+T.k+T.T.T.* * * * * * k+T.j+T.T.T.T.i+i+i+i+3 3 . [+2+[+[+l+. . . . .           ",
"          @ . . . . . m+m+n+o+o+o+o+p+p+q+r+s+t+r+s+r+r+r+u+u+v+v+v+v+s+r+t+s+r+r+r+w+w+w+w+o+o+x+m+m+m+m+3 . . . . @           ",
"            . . . . . . . . [+[+[+[+[+[+y+. . . . . . . . . . [+[+[+[+. . . . . . . [+[+[+[+[+[+y+. . . . . . . . .             ",
"              . . . . . . . . . . . [+[+[+[+z+A+[+[+[+[+[+[+[+[+[+[+[+[+[+A+z+[+[+. . . . . . . . . . . . . . . .               ",
"                @ . . . . . . . . . B+B+B+B+B+B+B+B+B+B+B+B+B+B+B+B+B+B+B+B+B+B+B+. . . . . . . . . . . . . .                   ",
"                @ . . . . . . . . . . . . . . . . . . . . . . . . . . . . . . . . . . . . . . . . . . . . . .                   ",
"                      . . . . . . . . . . . . . . . . . . . . . . . . . . . . . . . . . . . . . . . >                           ",
"                      @ @ @ @ @ . . . . . . . . . . . . . . . . . . . . . . . . . . @ @ @ @ @ @ @ @ =                           ",
"                                . . . . . . . . . . . . . . . . . . . . . . . . . .                                             ",
"                                                                                                                                ",
"                                                                                                                                ",
"                                                                                                                                ",
"                                                                                                                                ",
"                                                                                                                                ",
"                                                                                                                                "};
